<svg xmlns="http://www.w3.org/2000/svg" xmlns:xlink="http://www.w3.org/1999/xlink" version="1.1" width="256" height="256" viewBox="0 0 256 256" xml:space="preserve">

<defs>
</defs>
<g style="stroke: none; stroke-width: 0; stroke-dasharray: none; stroke-linecap: butt; stroke-linejoin: miter; stroke-miterlimit: 10; fill: none; fill-rule: nonzero; opacity: 1;" transform="translate(1.4065934065934016 1.4065934065934016) scale(2.81 2.81)" >
	<circle cx="79.91799999999999" cy="74.66799999999999" r="3.618" style="stroke: none; stroke-width: 1; stroke-dasharray: none; stroke-linecap: butt; stroke-linejoin: miter; stroke-miterlimit: 10; fill: rgb(240,188,94); fill-rule: nonzero; opacity: 1;" transform="  matrix(1 0 0 1 0 0) "/>
	<circle cx="10.078" cy="74.66799999999999" r="3.618" style="stroke: none; stroke-width: 1; stroke-dasharray: none; stroke-linecap: butt; stroke-linejoin: miter; stroke-miterlimit: 10; fill: rgb(240,188,94); fill-rule: nonzero; opacity: 1;" transform="  matrix(1 0 0 1 0 0) "/>
	<circle cx="44.998000000000005" cy="83.898" r="3.618" style="stroke: none; stroke-width: 1; stroke-dasharray: none; stroke-linecap: butt; stroke-linejoin: miter; stroke-miterlimit: 10; fill: rgb(240,188,94); fill-rule: nonzero; opacity: 1;" transform="  matrix(1 0 0 1 0 0) "/>
	<path d="M 45 15.413 c -9.113 0 -16.5 7.387 -16.5 16.5 c 0 9.113 7.387 16.5 16.5 16.5 s 16.5 -7.387 16.5 -16.5 C 61.5 22.801 54.113 15.413 45 15.413 z M 45 42.917 c -6.077 0 -11.004 -4.927 -11.004 -11.004 S 38.923 20.909 45 20.909 s 11.004 4.927 11.004 11.004 S 51.077 42.917 45 42.917 z" style="stroke: none; stroke-width: 1; stroke-dasharray: none; stroke-linecap: butt; stroke-linejoin: miter; stroke-miterlimit: 10; fill: rgb(240,188,94); fill-rule: nonzero; opacity: 1;" transform=" matrix(1 0 0 1 0 0) " stroke-linecap="round" />
	<path d="M 75.18 55.669 H 14.82 C 6.648 55.669 0 49.021 0 40.849 c 0 -6.268 3.859 -11.762 9.68 -13.904 c -0.001 -0.093 -0.002 -0.186 -0.002 -0.279 c 0 -13.887 11.298 -25.185 25.185 -25.185 c 7.067 0 13.797 2.973 18.568 8.18 c 1.929 -0.566 3.911 -0.854 5.901 -0.854 c 10.523 0 19.345 7.722 20.782 18.067 C 86.055 28.961 90 34.497 90 40.849 C 90 49.021 83.352 55.669 75.18 55.669 z M 34.862 3.481 c -12.784 0 -23.185 10.4 -23.185 23.185 c 0 0.317 0.011 0.633 0.024 0.948 c 0.019 0.452 -0.27 0.86 -0.702 0.995 c -5.383 1.678 -9 6.597 -9 12.241 c 0 7.069 5.751 12.82 12.82 12.82 h 60.36 c 7.069 0 12.82 -5.751 12.82 -12.82 c 0 -5.686 -3.653 -10.614 -9.091 -12.265 c -0.384 -0.117 -0.661 -0.451 -0.704 -0.85 c -1.042 -9.65 -9.156 -16.927 -18.873 -16.927 c -1.996 0 -3.983 0.319 -5.907 0.949 c -0.381 0.126 -0.802 0.011 -1.066 -0.294 C 47.946 6.39 41.569 3.481 34.862 3.481 z" style="stroke: none; stroke-width: 1; stroke-dasharray: none; stroke-linecap: butt; stroke-linejoin: miter; stroke-miterlimit: 10; fill: rgb(0,0,0); fill-rule: nonzero; opacity: 1;" transform=" matrix(1 0 0 1 0 0) " stroke-linecap="round" />
	<path d="M 76.301 75.671 H 62.776 c -2.93 0 -5.313 -2.384 -5.313 -5.313 V 54.669 c 0 -0.553 0.447 -1 1 -1 s 1 0.447 1 1 v 15.688 c 0 1.827 1.486 3.313 3.313 3.313 h 13.524 c 0.553 0 1 0.447 1 1 S 76.854 75.671 76.301 75.671 z" style="stroke: none; stroke-width: 1; stroke-dasharray: none; stroke-linecap: butt; stroke-linejoin: miter; stroke-miterlimit: 10; fill: rgb(0,0,0); fill-rule: nonzero; opacity: 1;" transform=" matrix(1 0 0 1 0 0) " stroke-linecap="round" />
	<path d="M 79.919 79.289 c -2.547 0 -4.618 -2.071 -4.618 -4.618 s 2.071 -4.618 4.618 -4.618 s 4.618 2.071 4.618 4.618 S 82.466 79.289 79.919 79.289 z M 79.919 72.053 c -1.443 0 -2.618 1.175 -2.618 2.618 s 1.175 2.618 2.618 2.618 s 2.618 -1.175 2.618 -2.618 S 81.362 72.053 79.919 72.053 z" style="stroke: none; stroke-width: 1; stroke-dasharray: none; stroke-linecap: butt; stroke-linejoin: miter; stroke-miterlimit: 10; fill: rgb(f,f,f); fill-rule: nonzero; opacity: 1;" transform=" matrix(1 0 0 1 0 0) " stroke-linecap="round" />
	<path d="M 27.223 75.671 H 13.699 c -0.552 0 -1 -0.447 -1 -1 s 0.448 -1 1 -1 h 13.524 c 1.827 0 3.314 -1.486 3.314 -3.313 V 54.669 c 0 -0.553 0.448 -1 1 -1 s 1 0.447 1 1 v 15.688 C 32.537 73.287 30.153 75.671 27.223 75.671 z" style="stroke: none; stroke-width: 1; stroke-dasharray: none; stroke-linecap: butt; stroke-linejoin: miter; stroke-miterlimit: 10; fill: rgb(0,0,0); fill-rule: nonzero; opacity: 1;" transform=" matrix(1 0 0 1 0 0) " stroke-linecap="round" />
	<path d="M 10.081 79.289 c -2.546 0 -4.618 -2.071 -4.618 -4.618 s 2.072 -4.618 4.618 -4.618 s 4.618 2.071 4.618 4.618 S 12.627 79.289 10.081 79.289 z M 10.081 72.053 c -1.444 0 -2.618 1.175 -2.618 2.618 s 1.174 2.618 2.618 2.618 c 1.443 0 2.618 -1.175 2.618 -2.618 S 11.524 72.053 10.081 72.053 z" style="stroke: none; stroke-width: 1; stroke-dasharray: none; stroke-linecap: butt; stroke-linejoin: miter; stroke-miterlimit: 10; fill: rgb(0,0,0); fill-rule: nonzero; opacity: 1;" transform=" matrix(1 0 0 1 0 0) " stroke-linecap="round" />
	<path d="M 45 81.283 c -0.552 0 -1 -0.447 -1 -1 V 54.669 c 0 -0.553 0.448 -1 1 -1 s 1 0.447 1 1 v 25.614 C 46 80.836 45.552 81.283 45 81.283 z" style="stroke: none; stroke-width: 1; stroke-dasharray: none; stroke-linecap: butt; stroke-linejoin: miter; stroke-miterlimit: 10; fill: rgb(0,0,0); fill-rule: nonzero; opacity: 1;" transform=" matrix(1 0 0 1 0 0) " stroke-linecap="round" />
	<path d="M 45 88.52 c -2.546 0 -4.618 -2.071 -4.618 -4.618 s 2.072 -4.618 4.618 -4.618 c 2.547 0 4.618 2.071 4.618 4.618 S 47.547 88.52 45 88.52 z M 45 81.283 c -1.444 0 -2.618 1.175 -2.618 2.618 S 43.556 86.52 45 86.52 c 1.443 0 2.618 -1.175 2.618 -2.618 S 46.443 81.283 45 81.283 z" style="stroke: none; stroke-width: 1; stroke-dasharray: none; stroke-linecap: butt; stroke-linejoin: miter; stroke-miterlimit: 10; fill: rgb(0,0,0); fill-rule: nonzero; opacity: 1;" transform=" matrix(1 0 0 1 0 0) " stroke-linecap="round" />
	<path d="M 45 43.917 c -6.619 0 -12.004 -5.385 -12.004 -12.004 c 0 -6.619 5.385 -12.003 12.004 -12.003 c 2.291 0 4.52 0.648 6.444 1.875 c 0.466 0.297 0.603 0.915 0.307 1.381 c -0.298 0.465 -0.915 0.604 -1.381 0.306 C 48.767 22.45 46.91 21.91 45 21.91 c -5.516 0 -10.004 4.487 -10.004 10.003 S 39.484 41.917 45 41.917 c 5.517 0 10.004 -4.488 10.004 -10.004 c 0 -2.332 -0.819 -4.601 -2.307 -6.39 c -0.354 -0.424 -0.296 -1.055 0.129 -1.408 c 0.427 -0.354 1.056 -0.295 1.408 0.13 c 1.786 2.147 2.77 4.871 2.77 7.668 C 57.004 38.532 51.619 43.917 45 43.917 z" style="stroke: none; stroke-width: 1; stroke-dasharray: none; stroke-linecap: butt; stroke-linejoin: miter; stroke-miterlimit: 10; fill: rgb(0,0,0); fill-rule: nonzero; opacity: 1;" transform=" matrix(1 0 0 1 0 0) " stroke-linecap="round" />
	<path d="M 45 49.413 c -9.649 0 -17.5 -7.851 -17.5 -17.5 s 7.851 -17.5 17.5 -17.5 s 17.5 7.851 17.5 17.5 S 54.649 49.413 45 49.413 z M 45 16.413 c -8.547 0 -15.5 6.953 -15.5 15.5 s 6.953 15.5 15.5 15.5 s 15.5 -6.953 15.5 -15.5 S 53.547 16.413 45 16.413 z" style="stroke: none; stroke-width: 1; stroke-dasharray: none; stroke-linecap: butt; stroke-linejoin: miter; stroke-miterlimit: 10; fill: rgb(0,0,0); fill-rule: nonzero; opacity: 1;" transform=" matrix(1 0 0 1 0 0) " stroke-linecap="round" />
	<path d="M 45.543 37.774 c -3.231 0 -5.86 -2.629 -5.86 -5.861 s 2.629 -5.86 5.86 -5.86 c 1.458 0 2.855 0.539 3.935 1.517 c 0.409 0.371 0.439 1.003 0.069 1.413 c -0.371 0.408 -1.005 0.439 -1.413 0.069 c -0.71 -0.644 -1.63 -0.999 -2.591 -0.999 c -2.128 0 -3.86 1.732 -3.86 3.86 c 0 2.129 1.732 3.861 3.86 3.861 c 0.96 0 1.88 -0.355 2.591 -0.999 c 0.409 -0.37 1.042 -0.34 1.413 0.07 c 0.371 0.409 0.34 1.042 -0.069 1.413 C 48.397 37.235 47 37.774 45.543 37.774 z" style="stroke: none; stroke-width: 1; stroke-dasharray: none; stroke-linecap: butt; stroke-linejoin: miter; stroke-miterlimit: 10; fill: rgb(0,0,0); fill-rule: nonzero; opacity: 1;" transform=" matrix(1 0 0 1 0 0) " stroke-linecap="round" />
	<path d="M 45.543 28.053 c -0.552 0 -1 -0.448 -1 -1 v -1.864 c 0 -0.552 0.448 -1 1 -1 c 0.553 0 1 0.448 1 1 v 1.864 C 46.543 27.605 46.096 28.053 45.543 28.053 z" style="stroke: none; stroke-width: 1; stroke-dasharray: none; stroke-linecap: butt; stroke-linejoin: miter; stroke-miterlimit: 10; fill: rgb(0,0,0); fill-rule: nonzero; opacity: 1;" transform=" matrix(1 0 0 1 0 0) " stroke-linecap="round" />
	<path d="M 45.543 39.638 c -0.552 0 -1 -0.448 -1 -1 v -1.864 c 0 -0.552 0.448 -1 1 -1 c 0.553 0 1 0.448 1 1 v 1.864 C 46.543 39.19 46.096 39.638 45.543 39.638 z" style="stroke: none; stroke-width: 1; stroke-dasharray: none; stroke-linecap: butt; stroke-linejoin: miter; stroke-miterlimit: 10; fill: rgb(0,0,0); fill-rule: nonzero; opacity: 1;" transform=" matrix(1 0 0 1 0 0) " stroke-linecap="round" />
</g>
</svg>